<svg width="25" height="25" viewBox="0 0 25 25" fill="none" xmlns="http://www.w3.org/2000/svg">
<path d="M12.0205 21.1182V13.1182M12.0205 21.1182L5.85803 16.7164C5.44746 16.4231 5.24217 16.2765 5.13134 16.0611C5.02051 15.8458 5.02051 15.5935 5.02051 15.0889V8.11816M12.0205 21.1182L18.183 16.7164C18.5936 16.4231 18.7988 16.2765 18.9097 16.0611C19.0205 15.8458 19.0205 15.5935 19.0205 15.0889V8.11816M12.0205 13.1182L5.02051 8.11816M12.0205 13.1182L19.0205 8.11816M5.02051 8.11816L10.858 3.9485C11.4194 3.54755 11.7 3.34707 12.0205 3.34707C12.341 3.34707 12.6216 3.54755 13.183 3.9485L19.0205 8.11816" stroke="#33363F" stroke-width="2" stroke-linejoin="round"/>
</svg>
