<svg width="17" height="17" viewBox="0 0 17 17" fill="none" xmlns="http://www.w3.org/2000/svg">
<path d="M15.0162 8.9383C15.3091 8.64541 15.3091 8.17054 15.0162 7.87764C14.7233 7.58475 14.2485 7.58475 13.9556 7.87764L15.0162 8.9383ZM9.48592 13.408L8.95559 13.9383C9.24848 14.2312 9.72336 14.2312 10.0163 13.9383L9.48592 13.408ZM5.01626 7.87763C4.72337 7.58474 4.24849 7.58474 3.9556 7.87763C3.66271 8.17052 3.66271 8.6454 3.9556 8.93829L5.01626 7.87763ZM13.9556 7.87764L8.95559 12.8776L10.0163 13.9383L15.0162 8.9383L13.9556 7.87764ZM10.0163 12.8776L5.01626 7.87763L3.9556 8.93829L8.95559 13.9383L10.0163 12.8776Z" fill="#6E6E6E"/>
</svg>
