<svg width="25" height="25" viewBox="0 0 25 25" fill="none" xmlns="http://www.w3.org/2000/svg">
<path d="M18.7705 11.9331C18.7705 15.7301 15.6925 18.8081 11.8955 18.8081L11.8955 20.8081C16.797 20.8081 20.7705 16.8346 20.7705 11.9331L18.7705 11.9331ZM11.8955 18.8081C8.09853 18.8081 5.02049 15.7301 5.0205 11.9331L3.0205 11.9331C3.02049 16.8346 6.99395 20.8081 11.8955 20.8081L11.8955 18.8081ZM5.0205 11.9331C5.0205 8.13615 8.09854 5.05811 11.8955 5.05812L11.8955 3.05812C6.99398 3.05811 3.0205 7.03158 3.0205 11.9331L5.0205 11.9331ZM11.8955 5.05812C15.6925 5.05812 18.7705 8.13617 18.7705 11.9331L20.7705 11.9331C20.7705 7.0316 16.797 3.05812 11.8955 3.05812L11.8955 5.05812Z" fill="#1A1A1A"/>
<path d="M18.1706 16.7948C17.7801 16.4043 17.1469 16.4043 16.7564 16.7948C16.3658 17.1854 16.3658 17.8185 16.7564 18.2091L18.1706 16.7948ZM21.3127 22.7654C21.7032 23.1559 22.3364 23.1559 22.7269 22.7654C23.1174 22.3749 23.1174 21.7417 22.7269 21.3512L21.3127 22.7654ZM16.7564 18.2091L21.3127 22.7654L22.7269 21.3512L18.1706 16.7948L16.7564 18.2091Z" fill="#1A1A1A"/>
</svg>
