<svg width="17" height="17" viewBox="0 0 17 17" fill="none" xmlns="http://www.w3.org/2000/svg">
<path d="M14.515 8.9383C14.8079 8.64541 14.8079 8.17054 14.515 7.87764C14.2221 7.58475 13.7473 7.58475 13.4544 7.87764L14.515 8.9383ZM8.98469 13.408L8.45436 13.9383C8.74725 14.2312 9.22213 14.2312 9.51502 13.9383L8.98469 13.408ZM4.51503 7.87763C4.22214 7.58474 3.74727 7.58474 3.45437 7.87763C3.16148 8.17052 3.16148 8.6454 3.45437 8.93829L4.51503 7.87763ZM13.4544 7.87764L8.45437 12.8776L9.51502 13.9383L14.515 8.9383L13.4544 7.87764ZM9.51503 12.8776L4.51503 7.87763L3.45437 8.93829L8.45436 13.9383L9.51503 12.8776Z" fill="#6E6E6E"/>
</svg>
