<svg width="17" height="17" viewBox="0 0 17 17" fill="none" xmlns="http://www.w3.org/2000/svg">
<path d="M15.0138 8.9383C15.3067 8.64541 15.3067 8.17054 15.0138 7.87764C14.7209 7.58475 14.246 7.58475 13.9531 7.87764L15.0138 8.9383ZM9.48346 13.408L8.95313 13.9383C9.24601 14.2312 9.72089 14.2312 10.0138 13.9383L9.48346 13.408ZM5.01379 7.87763C4.7209 7.58474 4.24603 7.58474 3.95313 7.87763C3.66024 8.17052 3.66024 8.6454 3.95313 8.93829L5.01379 7.87763ZM13.9531 7.87764L8.95313 12.8776L10.0138 13.9383L15.0138 8.9383L13.9531 7.87764ZM10.0138 12.8776L5.01379 7.87763L3.95313 8.93829L8.95313 13.9383L10.0138 12.8776Z" fill="#6E6E6E"/>
</svg>
