<svg width="342" height="31" viewBox="0 0 342 31" fill="none" xmlns="http://www.w3.org/2000/svg">
<path d="M27.8966 17.1204C27.8966 23.132 23.0232 28.0054 17.0117 28.0054V30.1293C24.1963 30.1293 30.0205 24.305 30.0205 17.1204H27.8966ZM17.0117 28.0054C11.0001 28.0054 6.1267 23.132 6.1267 17.1204H4.00281C4.00281 24.305 9.82707 30.1293 17.0117 30.1293V28.0054ZM6.1267 17.1204C6.1267 11.1088 11.0001 6.23547 17.0117 6.23547V4.11157C9.82707 4.11157 4.00281 9.93583 4.00281 17.1204H6.1267ZM17.0117 6.23547C23.0232 6.23547 27.8966 11.1088 27.8966 17.1204H30.0205C30.0205 9.93583 24.1963 4.11157 17.0117 4.11157V6.23547Z" fill="#FD650B"/>
<path d="M21.9895 13.2045C22.576 13.2045 23.0515 12.729 23.0515 12.1425C23.0515 11.556 22.576 11.0806 21.9895 11.0806V13.2045ZM17.0117 15.1292H15.9497H17.0117ZM15.9497 29.0673C15.9497 29.6538 16.4252 30.1292 17.0117 30.1292C17.5982 30.1292 18.0736 29.6538 18.0736 29.0673H15.9497ZM21.9895 11.0806H19.9984V13.2045H21.9895V11.0806ZM19.9984 11.0806C18.9246 11.0806 17.8948 11.5071 17.1355 12.2664L18.6374 13.7682C18.9983 13.4072 19.4879 13.2045 19.9984 13.2045V11.0806ZM17.1355 12.2664C16.3763 13.0257 15.9497 14.0555 15.9497 15.1292H18.0736C18.0736 14.6188 18.2764 14.1292 18.6374 13.7682L17.1355 12.2664ZM15.9497 15.1292V29.0673H18.0736V15.1292H15.9497Z" fill="#FD650B"/>
<path d="M13.0294 18.0496C12.4429 18.0496 11.9674 18.525 11.9674 19.1115C11.9674 19.698 12.4429 20.1735 13.0294 20.1735V18.0496ZM20.994 20.1735C21.5805 20.1735 22.0559 19.698 22.0559 19.1115C22.0559 18.525 21.5805 18.0496 20.994 18.0496V20.1735ZM13.0294 20.1735H20.994V18.0496H13.0294V20.1735Z" fill="#FD650B"/>
<path d="M57.956 12.1427L58.9517 12.1436V12.1428L57.956 12.1427ZM66.9025 10.1512L65.9899 10.5761C66.1483 10.963 66.5066 11.2131 66.9025 11.2131V10.1512ZM71.0248 10.1512L71.7288 10.9021C72.0136 10.5984 72.0988 10.1417 71.9447 9.74484C71.7906 9.34801 71.4275 9.08927 71.0248 9.08926V10.1512ZM67.2603 14.1662L66.5562 13.4153C66.3851 13.5977 66.2823 13.8402 66.2666 14.0976L67.2603 14.1662ZM52.3551 29.0671V30.1291H52.3551L52.3551 29.0671ZM47.6877 27.5738L47.3381 26.5794C47.0536 26.6933 46.8334 26.9393 46.7401 27.2478C46.6468 27.5562 46.6907 27.8932 46.8592 28.1629L47.6877 27.5738ZM53.2886 23.0937L54.1171 23.6827C54.2755 23.4293 54.3243 23.1156 54.251 22.8211C54.1777 22.5267 53.9894 22.2801 53.7339 22.1439L53.2886 23.0937ZM47.6877 8.16006L48.3918 7.40916C48.1299 7.12986 47.7443 7.02865 47.3908 7.14642C47.0373 7.26419 46.7743 7.58148 46.7081 7.9701L47.6877 8.16006ZM57.9544 14.1335L57.7907 15.181C58.0793 15.2323 58.3744 15.1457 58.5976 14.9441C58.821 14.7425 58.9499 14.4464 58.9501 14.1344L57.9544 14.1335ZM58.9517 12.1428C58.9518 11.2431 59.2424 10.3708 59.7745 9.67258L58.2292 8.33286C57.4086 9.40964 56.9604 10.7549 56.9603 12.1426L58.9517 12.1428ZM59.7745 9.67258C60.3067 8.97439 61.048 8.49291 61.8738 8.30907L61.467 6.22998C60.1933 6.51351 59.05 7.25609 58.2292 8.33286L59.7745 9.67258ZM61.8738 8.30907C62.6997 8.12523 63.5597 8.25024 64.3094 8.66309L65.223 6.77598C64.067 6.13925 62.7406 5.94645 61.467 6.22998L61.8738 8.30907ZM64.3094 8.66309C65.0589 9.07595 65.6524 9.75146 65.9899 10.5761L67.815 9.72627C67.2944 8.45452 66.3792 7.4127 65.223 6.77598L64.3094 8.66309ZM66.9025 11.2131L71.0248 11.2132V9.08926L66.9025 9.08922V11.2131ZM70.3207 9.40031L66.5562 13.4153L67.9643 14.9171L71.7288 10.9021L70.3207 9.40031ZM66.2666 14.0976C66.0378 17.8667 64.4727 21.4016 61.8889 23.9846L63.2508 25.5341C66.2036 22.5821 67.9924 18.5423 68.2539 14.2348L66.2666 14.0976ZM61.8889 23.9846C59.3051 26.5676 55.8965 28.0051 52.3551 28.0052L52.3551 30.1291C56.4024 30.129 60.298 28.4861 63.2508 25.5341L61.8889 23.9846ZM52.3551 28.0052C50.6132 28.0052 49.6042 27.6573 49.0665 27.3707C48.7967 27.2268 48.6376 27.0941 48.558 27.0178C48.5179 26.9792 48.4968 26.9539 48.4911 26.9469C48.4883 26.9432 48.4892 26.9443 48.4936 26.9504C48.4957 26.9534 48.4987 26.9578 48.5025 26.9634C48.5044 26.9663 48.5065 26.9695 48.5088 26.9731C48.5099 26.9748 48.5111 26.9767 48.5124 26.9786C48.513 26.9796 48.5136 26.9806 48.5142 26.9816C48.5146 26.9821 48.5151 26.9829 48.5152 26.9832C48.5157 26.9839 48.5162 26.9848 47.6877 27.5738C46.8592 28.1629 46.8597 28.1636 46.8602 28.1645C46.8604 28.1647 46.8609 28.1655 46.8613 28.1661C46.862 28.1672 46.8627 28.1683 46.8634 28.1695C46.8649 28.1718 46.8664 28.1741 46.868 28.1767C46.8712 28.1817 46.8747 28.187 46.8785 28.1926C46.8861 28.204 46.8948 28.2167 46.9047 28.2308C46.9245 28.2587 46.9492 28.2918 46.9791 28.3291C47.0391 28.4037 47.1201 28.495 47.2258 28.5965C47.438 28.8002 47.7456 29.0408 48.1759 29.2703C49.0385 29.7302 50.3631 30.1291 52.3551 30.1291V28.0052ZM47.6877 27.5738C48.0373 28.5681 48.0376 28.568 48.0378 28.5679C48.0379 28.5679 48.0382 28.5678 48.0384 28.5677C48.0388 28.5675 48.0393 28.5673 48.0398 28.5671C48.0409 28.5666 48.0422 28.5662 48.0437 28.5656C48.0467 28.5643 48.0506 28.5627 48.0554 28.5608C48.065 28.5569 48.0782 28.5515 48.0947 28.5444C48.1276 28.5306 48.1741 28.5109 48.2325 28.4851C48.3494 28.4335 48.5148 28.3578 48.7176 28.2579C49.1224 28.0587 49.6802 27.7613 50.3004 27.3644C51.5245 26.581 53.0666 25.3634 54.1171 23.6827L52.4601 22.5046C51.6437 23.8107 50.3853 24.8332 49.2758 25.5432C48.7291 25.893 48.2367 26.1555 47.8831 26.3295C47.7066 26.4164 47.5657 26.4808 47.4711 26.5225C47.4238 26.5434 47.3882 26.5586 47.3656 26.5681C47.3542 26.5728 47.3462 26.5761 47.3415 26.578C47.3392 26.579 47.3378 26.5795 47.3372 26.5798C47.3369 26.58 47.3368 26.58 47.337 26.5798C47.3371 26.5798 47.3372 26.5798 47.3374 26.5797C47.3375 26.5797 47.3376 26.5796 47.3377 26.5796C47.3379 26.5795 47.3381 26.5794 47.6877 27.5738ZM53.2886 23.0937C53.7339 22.1439 53.7344 22.1441 53.7349 22.1444C53.735 22.1444 53.7354 22.1446 53.7357 22.1448C53.7361 22.1451 53.7365 22.1453 53.7368 22.1454C53.7373 22.1457 53.7373 22.1457 53.7369 22.1455C53.7362 22.1451 53.7337 22.1438 53.7296 22.1414C53.7213 22.1368 53.7064 22.1284 53.6853 22.116C53.6432 22.0912 53.5765 22.0509 53.4893 21.9943C53.3148 21.8808 53.0592 21.703 52.7539 21.4552C52.1422 20.9589 51.3392 20.1886 50.5897 19.1036C49.1086 16.96 47.7859 13.5205 48.6674 8.35003L46.7081 7.9701C45.7226 13.751 47.2003 17.7783 48.9865 20.3635C49.8705 21.6432 50.8178 22.5529 51.548 23.1455C51.9137 23.4422 52.2268 23.661 52.4534 23.8082C52.5668 23.8818 52.6588 23.9377 52.7251 23.9766C52.7582 23.9961 52.785 24.0113 52.8049 24.0225C52.8148 24.028 52.8231 24.0326 52.8295 24.0361C52.8327 24.0378 52.8355 24.0392 52.8378 24.0405C52.8389 24.0412 52.84 24.0417 52.8409 24.0422C52.8413 24.0424 52.842 24.0428 52.8422 24.043C52.8428 24.0433 52.8433 24.0435 53.2886 23.0937ZM47.6877 8.16006C46.9836 8.91097 46.9838 8.91118 46.984 8.9114C46.9841 8.91149 46.9844 8.91174 46.9845 8.91194C46.9849 8.91233 46.9854 8.91281 46.9859 8.91335C46.9869 8.91445 46.9882 8.91585 46.9898 8.91755C46.993 8.92093 46.9974 8.92551 47.0028 8.93125C47.0138 8.94272 47.0292 8.9588 47.049 8.97925C47.0886 9.02012 47.1457 9.07841 47.2195 9.1519C47.3669 9.29883 47.5811 9.50682 47.8547 9.75811C48.4013 10.2601 49.1884 10.9381 50.1572 11.6485C52.0803 13.0588 54.7868 14.6469 57.7907 15.181L58.1182 13.086C55.5227 12.6245 53.0959 11.226 51.2855 9.89839C50.3875 9.23989 49.6578 8.61117 49.1542 8.14872C48.9028 7.91778 48.7086 7.72909 48.579 7.59991C48.5141 7.53534 48.4655 7.48571 48.434 7.45318C48.4183 7.43691 48.4068 7.42493 48.3997 7.4175C48.3962 7.41379 48.3937 7.41121 48.3924 7.40981C48.3918 7.40911 48.3914 7.4087 48.3913 7.40859C48.3912 7.40854 48.3912 7.40855 48.3913 7.40865C48.3914 7.4087 48.3915 7.40882 48.3915 7.40885C48.3916 7.40899 48.3918 7.40916 47.6877 8.16006ZM58.9501 14.1344L58.9517 12.1436L56.9603 12.1418L56.9587 14.1326L58.9501 14.1344Z" fill="#FD650B"/>
<path d="M105.28 17.4069C105.28 19.6061 103.498 21.3889 101.298 21.3889V23.5486C104.69 23.5486 107.44 20.7989 107.44 17.4069H105.28ZM101.298 21.3889C99.0991 21.3889 97.3163 19.6061 97.3163 17.4069H95.1566C95.1566 20.7989 97.9064 23.5486 101.298 23.5486V21.3889ZM97.3163 17.4069C97.3163 15.2077 99.0991 13.4249 101.298 13.4249V11.2651C97.9064 11.2651 95.1566 14.0149 95.1566 17.4069H97.3163ZM101.298 13.4249C103.498 13.4249 105.28 15.2077 105.28 17.4069H107.44C107.44 14.0149 104.69 11.2651 101.298 11.2651V13.4249Z" fill="#FD650B"/>
<path d="M95.7303 6.84454H106.866V4.68481H95.7303V6.84454ZM106.866 6.84454C109.625 6.84454 111.861 9.0806 111.861 11.8389H114.021C114.021 7.88781 110.818 4.68481 106.866 4.68481V6.84454ZM111.861 11.8389V22.975H114.021V11.8389H111.861ZM111.861 22.975C111.861 25.7333 109.625 27.9694 106.866 27.9694V30.1291C110.818 30.1291 114.021 26.9261 114.021 22.975H111.861ZM106.866 27.9694H95.7303V30.1291H106.866V27.9694ZM95.7303 27.9694C92.972 27.9694 90.7359 25.7333 90.7359 22.975H88.5762C88.5762 26.9261 91.7792 30.1291 95.7303 30.1291V27.9694ZM90.7359 22.975V11.8389H88.5762V22.975H90.7359ZM90.7359 11.8389C90.7359 9.0806 92.972 6.84454 95.7303 6.84454V4.68481C91.7792 4.68481 88.5762 7.88781 88.5762 11.8389H90.7359Z" fill="#FD650B"/>
<path d="M106.799 11.2651C107.638 11.2651 108.317 10.5853 108.317 9.74659C108.317 8.90791 107.638 8.22803 106.799 8.22803C105.96 8.22803 105.28 8.90791 105.28 9.74659C105.28 10.5853 105.96 11.2651 106.799 11.2651Z" fill="#FD650B"/>
<path d="M132.668 6.84454H153.928V4.68481H132.668V6.84454ZM153.928 6.84454C153.891 6.84454 153.861 6.81433 153.861 6.77705H156.021C156.021 5.62154 155.084 4.68481 153.928 4.68481V6.84454ZM153.861 6.77705V28.0369H156.021V6.77705H153.861ZM153.861 28.0369C153.861 27.9996 153.891 27.9694 153.928 27.9694V30.1291C155.084 30.1291 156.021 29.1925 156.021 28.0369H153.861ZM153.928 27.9694H132.668V30.1291H153.928V27.9694ZM132.668 27.9694C132.706 27.9694 132.736 27.9996 132.736 28.0369H130.576C130.576 29.1925 131.513 30.1291 132.668 30.1291V27.9694ZM132.736 28.0369V6.77705H130.576V28.0369H132.736ZM132.736 6.77705C132.736 6.81433 132.706 6.84454 132.668 6.84454V4.68481C131.513 4.68481 130.576 5.62154 130.576 6.77705H132.736Z" fill="#FD650B"/>
<path d="M143.366 15.3824C143.366 14.786 142.882 14.3025 142.286 14.3025C141.69 14.3025 141.206 14.786 141.206 15.3824H143.366ZM141.206 23.4813C141.206 24.0777 141.69 24.5612 142.286 24.5612C142.882 24.5612 143.366 24.0777 143.366 23.4813H141.206ZM141.206 15.3824V23.4813H143.366V15.3824H141.206Z" fill="#FD650B"/>
<path d="M139.316 15.3824C139.316 14.786 138.833 14.3025 138.236 14.3025C137.64 14.3025 137.157 14.786 137.157 15.3824H139.316ZM137.157 23.4813C137.157 24.0777 137.64 24.5612 138.236 24.5612C138.833 24.5612 139.316 24.0777 139.316 23.4813H137.157ZM137.157 15.3824V23.4813H139.316V15.3824H137.157Z" fill="#FD650B"/>
<path d="M141.206 18.9257C141.206 19.5221 141.69 20.0055 142.286 20.0055C142.882 20.0055 143.366 19.5221 143.366 18.9257H141.206ZM145.829 15.3824V14.3025V15.3824ZM148.293 23.4813C148.293 24.0777 148.776 24.5612 149.373 24.5612C149.969 24.5612 150.452 24.0777 150.452 23.4813H148.293ZM143.366 18.9257C143.366 18.2723 143.625 17.6457 144.087 17.1837L142.56 15.6566C141.693 16.5236 141.206 17.6995 141.206 18.9257H143.366ZM144.087 17.1837C144.549 16.7218 145.176 16.4622 145.829 16.4622V14.3025C144.603 14.3025 143.427 14.7896 142.56 15.6566L144.087 17.1837ZM145.829 16.4622C146.483 16.4622 147.109 16.7218 147.571 17.1837L149.098 15.6566C148.231 14.7896 147.055 14.3025 145.829 14.3025V16.4622ZM147.571 17.1837C148.033 17.6457 148.293 18.2723 148.293 18.9257H150.452C150.452 17.6995 149.965 16.5236 149.098 15.6566L147.571 17.1837ZM148.293 18.9257V23.4813H150.452V18.9257H148.293Z" fill="#FD650B"/>
<path d="M137.157 11.7715C137.995 11.7715 138.675 11.0916 138.675 10.2529C138.675 9.41426 137.995 8.73438 137.157 8.73438C136.318 8.73438 135.638 9.41426 135.638 10.2529C135.638 11.0916 136.318 11.7715 137.157 11.7715Z" fill="#FD650B"/>
<path d="M188.32 18.3611L188.89 19.3092C189.176 19.0979 189.348 18.7421 189.348 18.3611C189.348 17.9801 189.176 17.6243 188.89 17.413L188.32 18.3611ZM182.539 14.088L183.109 13.1399C182.793 12.9068 182.388 12.885 182.054 13.0833C181.719 13.2816 181.511 13.6677 181.511 14.088H182.539ZM182.539 22.6342H181.511C181.511 23.0545 181.719 23.4406 182.054 23.6389C182.388 23.8372 182.793 23.8155 183.109 23.5824L182.539 22.6342ZM188.89 17.413L183.109 13.1399L181.969 15.0361L187.75 19.3092L188.89 17.413ZM181.511 14.088V22.6342H183.567V14.088H181.511ZM183.109 23.5824L188.89 19.3092L187.75 17.413L181.969 21.6861L183.109 23.5824Z" fill="#FD650B"/>
<path d="M172.591 25.8639L173.587 25.5825L173.586 25.5768L172.591 25.8639ZM173.751 27.3187L173.377 28.3802L173.382 28.3824L173.751 27.3187ZM184.466 28.9895L184.472 27.8498L184.459 27.85L184.466 28.9895ZM195.181 27.3187L195.549 28.3824L195.555 28.3802L195.181 27.3187ZM196.341 25.864L195.346 25.5768L195.345 25.5825L196.341 25.864ZM196.341 10.8582L195.345 11.1396L195.346 11.1453L196.341 10.8582ZM195.181 9.40337L195.555 8.34195L195.549 8.33971L195.181 9.40337ZM184.466 7.73265L184.459 8.87221L184.472 8.87212L184.466 7.73265ZM173.751 9.40336L173.382 8.33967L173.377 8.34194L173.751 9.40336ZM172.591 10.8581L173.586 11.1453L173.587 11.1396L172.591 10.8581ZM170.911 18.3611C170.911 22.411 171.289 24.8413 171.596 26.1512L173.586 25.5768C173.33 24.4903 172.967 22.258 172.967 18.3611H170.911ZM171.595 26.1454C171.71 26.6481 171.932 27.113 172.242 27.5016L173.782 25.992C173.689 25.8746 173.622 25.7342 173.587 25.5825L171.595 26.1454ZM172.242 27.5016C172.552 27.8903 172.941 28.1915 173.377 28.3802L174.125 26.2574C173.993 26.2003 173.876 26.1094 173.782 25.992L172.242 27.5016ZM173.382 28.3824C175.541 29.3019 178.341 29.7291 180.534 29.9338C181.645 30.0373 182.625 30.0861 183.329 30.109C183.681 30.1204 183.964 30.1254 184.161 30.1276C184.259 30.1286 184.336 30.129 184.388 30.1291C184.415 30.1291 184.435 30.1291 184.449 30.1291C184.456 30.1291 184.462 30.129 184.466 30.129C184.468 30.129 184.469 30.129 184.47 30.129C184.471 30.129 184.471 30.129 184.472 30.129C184.472 30.129 184.472 30.129 184.472 30.129C184.472 30.129 184.472 30.129 184.466 28.9895C184.459 27.85 184.459 27.85 184.46 27.85V27.85C184.46 27.85 184.459 27.85 184.459 27.85C184.459 27.85 184.458 27.85 184.456 27.85C184.454 27.8501 184.45 27.8501 184.444 27.8501C184.432 27.8501 184.415 27.8501 184.391 27.8501C184.344 27.85 184.273 27.8497 184.181 27.8487C183.996 27.8467 183.726 27.842 183.389 27.8309C182.714 27.8091 181.771 27.7622 180.707 27.6629C178.551 27.4617 175.994 27.0534 174.12 26.2551L173.382 28.3824ZM184.466 28.9895C184.459 30.129 184.46 30.129 184.46 30.129C184.46 30.129 184.46 30.129 184.46 30.129C184.46 30.129 184.461 30.129 184.461 30.129C184.463 30.129 184.464 30.129 184.466 30.129C184.47 30.129 184.475 30.1291 184.483 30.1291C184.497 30.1291 184.517 30.1291 184.543 30.1291C184.596 30.129 184.673 30.1286 184.771 30.1276C184.968 30.1254 185.251 30.1204 185.603 30.109C186.307 30.0861 187.287 30.0373 188.397 29.9338C190.591 29.7291 193.391 29.3019 195.549 28.3824L194.812 26.2551C192.938 27.0534 190.38 27.4617 188.225 27.6629C187.16 27.7622 186.218 27.8091 185.543 27.8309C185.206 27.842 184.935 27.8467 184.751 27.8487C184.659 27.8497 184.588 27.85 184.541 27.8501C184.517 27.8501 184.499 27.8501 184.488 27.8501C184.482 27.8501 184.478 27.8501 184.475 27.85C184.474 27.85 184.473 27.85 184.473 27.85C184.472 27.85 184.472 27.85 184.472 27.85V27.85C184.472 27.85 184.472 27.85 184.466 28.9895ZM195.555 28.3802C195.99 28.1915 196.379 27.8903 196.689 27.5017L195.149 25.992C195.056 26.1094 194.938 26.2003 194.807 26.2574L195.555 28.3802ZM196.689 27.5017C196.999 27.113 197.221 26.6481 197.337 26.1455L195.345 25.5825C195.31 25.7342 195.243 25.8747 195.149 25.992L196.689 27.5017ZM197.336 26.1512C197.643 24.8413 198.02 22.411 198.02 18.3611H195.965C195.965 22.258 195.601 24.4903 195.346 25.5768L197.336 26.1512ZM198.02 18.3611C198.02 14.3111 197.643 11.8808 197.336 10.571L195.346 11.1453C195.601 12.2319 195.965 14.4642 195.965 18.3611H198.02ZM197.337 10.5767C197.221 10.074 196.999 9.6091 196.689 9.22047L195.149 10.7301C195.243 10.8474 195.31 10.9878 195.345 11.1396L197.337 10.5767ZM196.689 9.22047C196.379 8.83184 195.99 8.53069 195.555 8.34196L194.807 10.4648C194.938 10.5218 195.056 10.6127 195.149 10.7301L196.689 9.22047ZM195.549 8.33971C193.391 7.42016 190.591 6.99305 188.397 6.78831C187.287 6.68472 186.307 6.63599 185.603 6.61311C185.251 6.60166 184.968 6.59666 184.771 6.59453C184.673 6.59346 184.596 6.59312 184.543 6.59304C184.517 6.593 184.497 6.59303 184.483 6.59307C184.475 6.59309 184.47 6.59311 184.466 6.59313C184.464 6.59314 184.463 6.59315 184.461 6.59316C184.461 6.59316 184.46 6.59316 184.46 6.59316C184.46 6.59317 184.46 6.59317 184.46 6.59317C184.46 6.59317 184.459 6.59317 184.466 7.73265C184.472 8.87212 184.472 8.87212 184.472 8.87212V8.87212C184.472 8.87212 184.472 8.87212 184.473 8.87212C184.473 8.87212 184.474 8.87211 184.475 8.87211C184.478 8.8721 184.482 8.87208 184.488 8.87207C184.499 8.87203 184.517 8.872 184.541 8.87203C184.588 8.87211 184.659 8.87242 184.751 8.87342C184.935 8.87543 185.206 8.88016 185.543 8.89113C186.218 8.91309 187.16 8.95993 188.225 9.05929C190.38 9.26043 192.938 9.66869 194.812 10.467L195.549 8.33971ZM184.466 7.73265C184.472 6.59317 184.472 6.59317 184.472 6.59317C184.472 6.59317 184.472 6.59317 184.472 6.59316C184.471 6.59316 184.471 6.59316 184.47 6.59316C184.469 6.59315 184.468 6.59314 184.466 6.59313C184.462 6.59311 184.456 6.59309 184.449 6.59307C184.435 6.59303 184.415 6.593 184.388 6.59304C184.336 6.59312 184.259 6.59346 184.161 6.59453C183.964 6.59666 183.681 6.60166 183.329 6.61311C182.625 6.63599 181.645 6.68472 180.534 6.78831C178.341 6.99305 175.541 7.42015 173.383 8.33969L174.12 10.467C175.994 9.66868 178.551 9.26043 180.707 9.05929C181.771 8.95993 182.714 8.91309 183.389 8.89113C183.726 8.88016 183.996 8.87543 184.181 8.87342C184.273 8.87242 184.344 8.87211 184.391 8.87203C184.415 8.872 184.432 8.87203 184.444 8.87207C184.45 8.87208 184.454 8.8721 184.456 8.87211C184.458 8.87211 184.459 8.87212 184.459 8.87212C184.459 8.87212 184.46 8.87212 184.46 8.87212V8.87212C184.459 8.87212 184.459 8.87212 184.466 7.73265ZM173.377 8.34194C172.941 8.53067 172.552 8.83182 172.242 9.22045L173.782 10.7301C173.876 10.6127 173.994 10.5218 174.125 10.4648L173.377 8.34194ZM172.242 9.22045C171.932 9.60906 171.711 10.074 171.595 10.5766L173.587 11.1396C173.622 10.9878 173.689 10.8474 173.782 10.7301L172.242 9.22045ZM171.596 10.5709C171.289 11.8808 170.911 14.3111 170.911 18.3611H172.967C172.967 14.4642 173.33 12.2319 173.586 11.1453L171.596 10.5709Z" fill="#FD650B"/>
</svg>
